<svg width="100" height="100" viewBox="0 0 100 100" fill="none" xmlns="http://www.w3.org/2000/svg">
<path d="M50 100C77.6142 100 100 77.6142 100 50C100 22.3858 77.6142 0 50 0C22.3858 0 0 22.3858 0 50C0 77.6142 22.3858 100 50 100Z" fill="#F26798"/>
<path d="M49.9991 18.2466C32.4682 18.2466 18.2056 32.4922 18.2056 50.0009C18.2056 67.5095 32.4682 81.7543 49.9991 81.7543C67.5309 81.7543 81.7944 67.5104 81.7944 50.0009C81.7944 32.4922 67.5309 18.2466 49.9991 18.2466ZM70.9205 33.2338C74.5472 37.7286 76.7514 43.4053 76.853 49.5909C75.6462 49.3431 70.5355 48.3903 64.4283 48.3903C62.4577 48.3903 60.3836 48.4893 58.3042 48.7459C58.1286 48.319 57.953 47.8939 57.7686 47.4643C57.2293 46.1959 56.6482 44.9374 56.0466 43.6976C65.4462 39.825 69.9802 34.4504 70.9205 33.2338ZM49.9991 23.2174C56.7739 23.2174 62.9666 25.7344 67.6967 29.8799C66.948 30.9013 62.8873 35.9772 53.8237 39.4016C49.6283 31.7329 45.0364 25.3824 43.9436 23.9082C45.8911 23.4572 47.9179 23.2174 49.9991 23.2174ZM38.4613 25.82C39.3873 27.0954 43.9864 33.5137 48.2896 41.1209C36.7411 44.1567 26.4858 44.3545 24.0107 44.3545H23.7477C25.5259 36.1599 31.0626 29.3504 38.4613 25.82ZM23.1381 50.0428C23.1381 49.8217 23.1416 49.6007 23.1488 49.3806C23.3092 49.3823 23.5463 49.3823 23.8538 49.3823C27.1872 49.3823 38.7581 49.1069 50.6818 45.5685C51.4056 46.9839 52.0945 48.4206 52.7354 49.8565C52.4341 49.943 52.1373 50.0294 51.8423 50.1257C38.4167 54.4618 31.0376 65.9409 29.9021 67.817C25.6952 63.0771 23.1381 56.8541 23.1381 50.0428ZM49.9991 76.8664C43.8385 76.8664 38.1529 74.7798 33.6162 71.2815C34.3836 69.777 39.9533 59.749 54.6659 54.6285C54.6749 54.6249 54.6847 54.6214 54.6954 54.6187C58.3844 64.2233 59.9469 72.2842 60.3756 74.7825C57.183 76.1248 53.6766 76.8664 49.9991 76.8664ZM65.2136 72.138C64.8535 70.0711 63.406 62.5165 60.0654 53.3023C61.9389 53.0108 63.7616 52.8958 65.4711 52.8958C71.0854 52.8958 75.4768 54.1249 76.4974 54.4369C75.2843 61.7535 71.0952 68.0853 65.2136 72.138Z" fill="#F1F2F2"/>
</svg>
