<svg width="100" height="100" viewBox="0 0 100 100" fill="none" xmlns="http://www.w3.org/2000/svg">
<path d="M50 0C22.3875 0 0 22.3875 0 50C0 77.6125 22.3875 100 50 100C77.6125 100 100 77.6125 100 50C100 22.3875 77.6125 0 50 0ZM41.6667 66.6667H33.3333V41.6667H41.6667V66.6667ZM37.5 37.9542C34.9708 37.9542 32.9167 35.8875 32.9167 33.3333C32.9167 30.7833 34.9667 28.7125 37.5 28.7125C40.0333 28.7125 42.0833 30.7833 42.0833 33.3333C42.0833 35.8875 40.0292 37.9542 37.5 37.9542ZM70.8333 66.6667H62.5083V54.7458C62.5083 46.9083 54.1667 47.5708 54.1667 54.7458V66.6667H45.8333V41.6667H54.1667V46.2208C57.8 39.4875 70.8333 38.9875 70.8333 52.6708V66.6667Z" fill="#007FDB"/>
</svg>
