<svg width="100" height="100" viewBox="0 0 100 100" fill="none" xmlns="http://www.w3.org/2000/svg">
<path d="M100 50C100 77.6146 77.6146 100 50 100C22.3854 100 0 77.6146 0 50C0 22.3854 22.3854 0 50 0C77.6146 0 100 22.3854 100 50Z" fill="url(#paint0_linear)"/>
<path d="M64.1777 83.6914H36.2129C25.3456 83.6914 16.5039 74.8497 16.5039 63.9824V36.0176C16.5039 25.1503 25.3456 16.3086 36.2129 16.3086H64.1777C75.0458 16.3086 83.8867 25.1503 83.8867 36.0176V61.3403C83.8867 62.9578 82.5752 64.27 80.957 64.27C79.3388 64.27 78.0273 62.9578 78.0273 61.3403V36.0176C78.0273 28.3806 71.8147 22.168 64.1777 22.168H36.2129C28.5759 22.168 22.3633 28.3806 22.3633 36.0176V63.9824C22.3633 71.6194 28.5759 77.832 36.2129 77.832H64.1777C68.5493 77.832 72.5731 75.8316 75.2197 72.3434C76.1978 71.0541 78.035 70.8023 79.3243 71.7796C80.6137 72.7577 80.8655 74.5956 79.8882 75.885C76.1238 80.8464 70.3979 83.6914 64.1777 83.6914Z" fill="white"/>
<path d="M50.1953 68.3105C40.0986 68.3105 31.8848 60.0967 31.8848 50C31.8848 39.9033 40.0986 31.6895 50.1953 31.6895C60.2921 31.6895 68.5059 39.9033 68.5059 50C68.5059 60.0967 60.2921 68.3105 50.1953 68.3105ZM50.1953 37.5488C43.3296 37.5488 37.7441 43.1343 37.7441 50C37.7441 56.8657 43.3296 62.4512 50.1953 62.4512C57.061 62.4512 62.6465 56.8657 62.6465 50C62.6465 43.1343 57.061 37.5488 50.1953 37.5488Z" fill="white"/>
<path d="M71.0503 31.7513C71.0503 33.1909 69.8837 34.3582 68.4441 34.3582C67.0044 34.3582 65.8371 33.1909 65.8371 31.7513C65.8371 30.3116 67.0044 29.1451 68.4441 29.1451C69.8837 29.1451 71.0503 30.3116 71.0503 31.7513V31.7513Z" fill="white"/>
<defs>
<linearGradient id="paint0_linear" x1="0" y1="50" x2="100" y2="50" gradientUnits="userSpaceOnUse">
<stop stop-color="#FAFF00"/>
<stop offset="0.231" stop-color="#FF8A00"/>
<stop offset="0.5138" stop-color="#FF6B00"/>
<stop offset="0.7773" stop-color="#FF3D00"/>
<stop offset="1" stop-color="#FF0000"/>
</linearGradient>
</defs>
</svg>
