<svg width="100" height="100" viewBox="0 0 100 100" fill="none" xmlns="http://www.w3.org/2000/svg">
<g clip-path="url(#clip0)">
<path d="M50.0006 99.9991C77.6145 99.9991 100 77.6135 100 49.9996C100 22.3856 77.6145 0 50.0006 0C22.3866 0 0.00100708 22.3856 0.00100708 49.9996C0.00100708 77.6135 22.3866 99.9991 50.0006 99.9991Z" fill="#55ACEE"/>
<path d="M80.6269 35.9332C78.4843 36.8833 76.1794 37.526 73.7622 37.813C76.2302 36.3343 78.1242 33.9947 79.0182 31.2023C76.7088 32.5722 74.1499 33.566 71.4288 34.1016C69.2487 31.7798 66.1426 30.3288 62.7031 30.3288C56.104 30.3288 50.7518 35.681 50.7518 42.2801C50.7518 43.2168 50.8579 44.1286 51.0629 45.0039C41.1303 44.5056 32.3235 39.7479 26.4285 32.5151C25.4 34.2799 24.8099 36.3343 24.8099 38.5242C24.8099 42.6696 26.9214 46.3292 30.1265 48.4719C28.1683 48.4104 26.3242 47.8729 24.7137 46.9754C24.7128 47.0262 24.7128 47.077 24.7128 47.1269C24.7128 52.9176 28.8341 57.7475 34.3004 58.8447C33.2986 59.1192 32.2406 59.2645 31.1523 59.2645C30.3805 59.2645 29.6327 59.1905 28.9036 59.0515C30.4242 63.7985 34.8369 67.254 40.0679 67.3512C35.9769 70.5571 30.8244 72.4672 25.2235 72.4672C24.2609 72.4672 23.3072 72.411 22.374 72.2996C27.6603 75.6919 33.9439 77.6696 40.6927 77.6696C62.6755 77.6696 74.6972 59.4588 74.6972 43.6643C74.6972 43.1464 74.6856 42.6304 74.6624 42.1188C76.9994 40.4342 79.0253 38.3299 80.6269 35.9332Z" fill="#F1F2F2"/>
</g>
<defs>
<clipPath id="clip0">
<rect width="100" height="100" fill="white"/>
</clipPath>
</defs>
</svg>
